<?xml version="1.0" standalone="no"?><!DOCTYPE svg PUBLIC "-//W3C//DTD SVG 1.1//EN" "http://www.w3.org/Graphics/SVG/1.1/DTD/svg11.dtd"><svg t="1640156545020" class="icon" viewBox="0 0 1024 1024" version="1.1" xmlns="http://www.w3.org/2000/svg" p-id="4664" xmlns:xlink="http://www.w3.org/1999/xlink" width="48" height="48"><defs><style type="text/css"></style></defs><path d="M316.5952 959.49824c-20.45952 0-38.98368-4.69504-55.06048-13.96224-60.1856-34.67264-79.27808-128.80896-52.608-258.65728-125.60384-41.8304-197.53472-105.46688-197.53472-174.96576 0-69.55008 71.91552-133.16096 197.53984-174.90432-26.48064-129.73568-7.33184-223.86688 52.7616-258.65216 16.03072-9.27744 34.5344-13.98272 54.99392-13.98272 55.13216 0 124.36992 34.61632 195.31776 97.58208 70.96832-62.93504 140.16512-97.536 195.22048-97.536 20.4544 0 38.98368 4.69504 55.07072 13.96736 60.11904 34.6368 79.26784 128.7168 52.77184 258.49344 125.6192 41.90208 197.53984 105.58976 197.53984 175.11424 0 69.5808-71.92576 133.18144-197.53472 174.8736 26.64448 129.83296 7.49056 223.96416-52.77696 258.65216-16.06144 9.24672-34.56512 13.93664-54.99904 13.93664-55.14752 0-124.37504-34.6368-195.29728-97.62816-70.98368 63.01696-140.24704 97.664-195.4048 97.66912z m239.67744-140.68736c59.17184 50.31936 116.224 80.2304 153.3184 80.2304 9.0368 0 16.71168-1.792 22.81472-5.31456l1.79712-1.03424c30.6944-20.20864 38.98368-93.52704 21.3504-188.89216a951.88992 951.88992 0 0 1-120.68352 21.12 935.296 935.296 0 0 1-78.59712 93.89056z m-264.68352 74.9056c6.07744 3.5072 13.71136 5.28384 22.69184 5.28384 36.99712 0 93.9264-29.96224 152.97024-80.36352a955.43808 955.43808 0 0 1-78.12608-93.88032 966.28736 966.28736 0 0 1-120.832-20.83328c-17.83296 97.14688-8.81664 171.35616 23.28576 189.7984l0.01024-0.00512z m177.84832-163.06688a842.76736 842.76736 0 0 0 42.40384 46.45888 820.52096 820.52096 0 0 0 42.59328-46.208c-14.73536 0.55296-28.71296 0.82944-42.43456 0.82944-12.73344 0-26.1888-0.33792-42.56256-1.08032z m-48.58368-61.96736c30.208 3.13344 60.87168 4.80256 91.17184 4.95104 30.24384 0 60.78976-1.50016 90.80832-4.4544a940.52352 940.52352 0 0 0 49.08032-76.36992 896.07168 896.07168 0 0 0 41.43104-81.55136 956.86144 956.86144 0 0 0-41.2672-80.13312l-0.68608-1.19296a937.60512 937.60512 0 0 0-48.2304-74.76224 933.7344 933.7344 0 0 0-91.19232-4.93568c-30.24896 0-60.78464 1.49504-90.80832 4.43392a945.3568 945.3568 0 0 0-49.24928 76.44672 936.8832 936.8832 0 0 0-41.26208 81.29536c13.17888 28.71808 26.74176 55.03488 41.42592 80.39424a977.1008 977.1008 0 0 0 48.77824 75.8784z m271.83616-30.59712a1170.40128 1170.40128 0 0 1-12.38528 20.10112 850.19136 850.19136 0 0 0 61.42464-13.76768 840.27904 840.27904 0 0 0-18.95936-60.11904 915.31264 915.31264 0 0 1-20.5312 37.62688l-9.5488 16.50176v-0.34304z m-410.42432 6.48704c17.71008 4.64384 37.85216 9.00096 61.14816 13.23008a1014.34368 1014.34368 0 0 1-21.66784-35.968 1499.22816 1499.22816 0 0 1-20.43392-36.84864c-8.15104 23.00416-14.3104 42.2656-19.0464 59.58656zM224.0256 397.3376C130.99008 430.30528 71.18336 475.0592 71.18336 512c0 37.01248 59.74016 81.85856 152.6784 114.9184a948.49536 948.49536 0 0 1 42.22464-114.95424 945.80224 945.80224 0 0 1-42.0608-114.62656z m533.88288 114.41152a975.59552 975.59552 0 0 1 42.21952 114.84672c92.94336-33.0496 152.68352-77.77792 152.68352-114.6112 0-36.51072-61.19424-82.42688-152.83712-115.00032a968.2688 968.2688 0 0 1-42.06592 114.7648z m-475.63264-132.352a846.19776 846.19776 0 0 0 18.95424 59.93984c6.08768-11.73504 12.91264-24.53504 20.37248-37.3248a1327.75936 1327.75936 0 0 1 21.96992-36.36224 826.112 826.112 0 0 0-61.29664 13.7472z m398.45376-13.25568c7.91552 12.6208 14.88896 24.05888 21.6832 35.968a1462.40512 1462.40512 0 0 1 20.26496 36.59264c8.16128-22.96832 14.3104-42.1632 19.04128-59.392-17.58208-4.608-37.29408-8.86784-60.98944-13.16864zM291.59424 130.26816c-32.00512 18.49856-40.96 92.73344-23.13728 189.8752a954.04544 954.04544 0 0 1 120.50944-21.0944A955.1104 955.1104 0 0 1 467.57376 205.1584C408.576 154.81344 351.60064 124.88192 314.496 124.88192c-8.4736 0-15.7696 1.57184-21.70368 4.66432l-1.19808 0.72192z m343.4496 168.81152a966.1952 966.1952 0 0 1 120.4992 20.81792c17.57184-95.67232 9.1136-169.10848-21.79072-188.86144l-1.34656-0.768c-6.08256-3.51232-13.73184-5.28896-22.72256-5.28896-36.98688 0-93.9008 29.90592-152.91904 80.21504a939.1104 939.1104 0 0 1 78.27968 93.88544z m-122.42944-7.02464c14.33088 0 28.81536 0.49152 42.04544 1.08544a896.9216 896.9216 0 0 0-42.53696-46.42816 821.6576 821.6576 0 0 0-42.56256 46.18752c14.41792-0.54784 28.64128-0.82944 42.42944-0.8448h0.62464z m-0.6144 258.09408c-21.03808 0-38.15424-17.11616-38.15424-38.14912 0-21.03808 17.11616-38.15424 38.15424-38.15424 21.03296 0 38.14912 17.11616 38.14912 38.15424 0 21.03296-17.11616 38.14912-38.14912 38.14912z" p-id="4665"></path></svg>